<svg width="32" height="32" viewBox="0 0 32 32" fill="none" xmlns="http://www.w3.org/2000/svg">
<path d="M24.571 0.443059C25.1617 -0.147683 26.1199 -0.147687 26.7106 0.443059L31.5573 5.28974C32.1478 5.8805 32.148 6.83871 31.5573 7.42939L22.986 15.9997L31.5573 24.571C32.1478 25.1618 32.148 26.12 31.5573 26.7106L26.7106 31.5573C26.12 32.148 25.1618 32.1478 24.571 31.5573L15.9997 22.986L7.42939 31.5573C6.83871 32.148 5.8805 32.1478 5.28974 31.5573L0.443059 26.7106C-0.147687 26.1199 -0.147683 25.1617 0.443059 24.571L9.01337 15.9997L0.443059 7.42939C-0.147687 6.83864 -0.147685 5.88049 0.443059 5.28974L5.28974 0.443059C5.88049 -0.147685 6.83864 -0.147687 7.42939 0.443059L15.9997 9.01337L24.571 0.443059Z" fill="#A8BFC9"/>
</svg>
