<svg width="32" height="32" viewBox="0 0 32 32" fill="none" xmlns="http://www.w3.org/2000/svg">
<path d="M24.571 0.443115C25.1617 -0.147627 26.1199 -0.147631 26.7106 0.443115L31.5573 5.28979C32.1478 5.88056 32.148 6.83877 31.5573 7.42944L22.986 15.9998L31.5573 24.571C32.1478 25.1618 32.148 26.12 31.5573 26.7107L26.7106 31.5574C26.12 32.148 25.1618 32.1479 24.571 31.5574L15.9997 22.9861L7.42939 31.5574C6.83871 32.148 5.8805 32.1479 5.28974 31.5574L0.44306 26.7107C-0.147686 26.1199 -0.147683 25.1618 0.44306 24.571L9.01337 15.9998L0.44306 7.42944C-0.147687 6.8387 -0.147684 5.88054 0.44306 5.28979L5.28974 0.443115C5.88049 -0.147629 6.83864 -0.147631 7.42939 0.443115L15.9997 9.01343L24.571 0.443115Z" fill="#1A2A33"/>
</svg>
