<svg width="64" height="64" viewBox="0 0 64 64" fill="none" xmlns="http://www.w3.org/2000/svg">
<path d="M48.7295 0.878662C49.9011 -0.292906 51.8001 -0.292909 52.9717 0.878662L62.584 10.49C63.7556 11.6616 63.7556 13.5616 62.584 14.7332L45.5859 31.7312L62.584 48.7292C63.7553 49.9008 63.7553 51.7999 62.584 52.9714L52.9717 62.5837C51.8002 63.7551 49.901 63.7551 48.7295 62.5837L31.7314 45.5857L14.7334 62.5837C13.5618 63.7553 11.6618 63.7553 10.4902 62.5837L0.878906 52.9714C-0.292665 51.7999 -0.292662 49.9008 0.878906 48.7292L17.877 31.7312L0.878906 14.7332C-0.292667 13.5616 -0.292667 11.6616 0.878906 10.49L10.4902 0.878662C11.6618 -0.292911 13.5618 -0.292911 14.7334 0.878662L31.7314 17.8767L48.7295 0.878662Z" fill="#31C3BD"/>
</svg>
