<svg width="64" height="64" viewBox="0 0 64 64" fill="none" xmlns="http://www.w3.org/2000/svg">
<path d="M48.7292 0.878662C49.9008 -0.292906 51.7999 -0.292909 52.9714 0.878662L62.5837 10.49C63.7553 11.6616 63.7553 13.5616 62.5837 14.7332L45.5857 31.7312L62.5837 48.7292C63.7551 49.9008 63.7551 51.7999 62.5837 52.9714L52.9714 62.5837C51.7999 63.7551 49.9008 63.7551 48.7292 62.5837L31.7312 45.5857L14.7332 62.5837C13.5616 63.7553 11.6616 63.7553 10.49 62.5837L0.878662 52.9714C-0.292909 51.7999 -0.292906 49.9008 0.878662 48.7292L17.8767 31.7312L0.878662 14.7332C-0.292911 13.5616 -0.292911 11.6616 0.878662 10.49L10.49 0.878662C11.6616 -0.292911 13.5616 -0.292911 14.7332 0.878662L31.7312 17.8767L48.7292 0.878662Z" fill="#31C3BD"/>
</svg>
