<svg width="63" height="63" viewBox="0 0 63 63" fill="none" xmlns="http://www.w3.org/2000/svg">
<g id="Combined Shape Copy 3">
<mask id="path-1-inside-1_4145_370" fill="white">
<path d="M47.6082 1.17163C49.1703 -0.390385 51.7023 -0.390439 53.2644 1.17163L61.4626 9.3689C63.0246 10.931 63.0246 13.4641 61.4626 15.0261L45.1716 31.3171L61.4626 47.6082C63.0243 49.1702 63.0244 51.7024 61.4626 53.2644L53.2644 61.4626C51.7024 63.0243 49.1702 63.0243 47.6082 61.4626L31.3171 45.1716L15.0261 61.4626C13.464 63.0246 10.931 63.0246 9.3689 61.4626L1.17163 53.2644C-0.390439 51.7023 -0.390386 49.1703 1.17163 47.6082L17.4626 31.3171L1.17163 15.0261C-0.390466 13.464 -0.390466 10.931 1.17163 9.3689L9.3689 1.17163C10.931 -0.390466 13.464 -0.390466 15.0261 1.17163L31.3171 17.4626L47.6082 1.17163Z"/>
</mask>
<path d="M47.6082 1.17163L46.194 -0.242623L46.1939 -0.242583L47.6082 1.17163ZM53.2644 1.17163L51.8502 2.58584L51.8503 2.58593L53.2644 1.17163ZM61.4626 9.3689L62.8769 7.95473L62.8768 7.9546L61.4626 9.3689ZM61.4626 15.0261L62.8769 16.4403L62.8769 16.4403L61.4626 15.0261ZM45.1716 31.3171L43.7574 29.9029L42.3432 31.3171L43.7574 32.7314L45.1716 31.3171ZM61.4626 47.6082L62.8771 46.1941L62.8769 46.1939L61.4626 47.6082ZM61.4626 53.2644L62.8769 54.6786L62.877 54.6785L61.4626 53.2644ZM53.2644 61.4626L54.6785 62.877L54.6786 62.8769L53.2644 61.4626ZM47.6082 61.4626L46.1939 62.8769L46.1941 62.8771L47.6082 61.4626ZM31.3171 45.1716L32.7314 43.7574L31.3171 42.3432L29.9029 43.7574L31.3171 45.1716ZM15.0261 61.4626L16.4403 62.8769L16.4403 62.8769L15.0261 61.4626ZM9.3689 61.4626L7.9546 62.8768L7.95473 62.8769L9.3689 61.4626ZM1.17163 53.2644L2.58593 51.8503L2.58584 51.8502L1.17163 53.2644ZM1.17163 47.6082L-0.242583 46.1939L-0.242622 46.194L1.17163 47.6082ZM17.4626 31.3171L18.8769 32.7314L20.2911 31.3171L18.8769 29.9029L17.4626 31.3171ZM31.3171 17.4626L29.9029 18.8769L31.3171 20.2911L32.7314 18.8769L31.3171 17.4626ZM47.6082 1.17163L49.0223 2.58588C49.8034 1.80482 51.0692 1.80486 51.8502 2.58584L53.2644 1.17163L54.6786 -0.242583C52.3355 -2.58574 48.5371 -2.58559 46.194 -0.242623L47.6082 1.17163ZM53.2644 1.17163L51.8503 2.58593L60.0485 10.7832L61.4626 9.3689L62.8768 7.9546L54.6785 -0.242667L53.2644 1.17163ZM61.4626 9.3689L60.0484 10.7831C60.8294 11.5641 60.8294 12.8309 60.0484 13.6119L61.4626 15.0261L62.8769 16.4403C65.2199 14.0972 65.2199 10.2978 62.8769 7.95473L61.4626 9.3689ZM61.4626 15.0261L60.0484 13.6119L43.7574 29.9029L45.1716 31.3171L46.5858 32.7314L62.8769 16.4403L61.4626 15.0261ZM45.1716 31.3171L43.7574 32.7314L60.0484 49.0224L61.4626 47.6082L62.8769 46.1939L46.5858 29.9029L45.1716 31.3171ZM61.4626 47.6082L60.0482 49.0222C60.8291 49.8033 60.8291 51.0694 60.0483 51.8503L61.4626 53.2644L62.877 54.6785C65.2196 52.3354 65.2194 48.5371 62.8771 46.1941L61.4626 47.6082ZM61.4626 53.2644L60.0484 51.8502L51.8502 60.0484L53.2644 61.4626L54.6786 62.8769L62.8769 54.6786L61.4626 53.2644ZM53.2644 61.4626L51.8503 60.0483C51.0694 60.8291 49.8033 60.8291 49.0222 60.0482L47.6082 61.4626L46.1941 62.8771C48.5371 65.2194 52.3354 65.2196 54.6785 62.877L53.2644 61.4626ZM47.6082 61.4626L49.0224 60.0484L32.7314 43.7574L31.3171 45.1716L29.9029 46.5858L46.1939 62.8769L47.6082 61.4626ZM31.3171 45.1716L29.9029 43.7574L13.6119 60.0484L15.0261 61.4626L16.4403 62.8769L32.7314 46.5858L31.3171 45.1716ZM15.0261 61.4626L13.6119 60.0484C12.8309 60.8294 11.5641 60.8294 10.7831 60.0484L9.3689 61.4626L7.95473 62.8769C10.2978 65.2199 14.0972 65.2199 16.4403 62.8769L15.0261 61.4626ZM9.3689 61.4626L10.7832 60.0485L2.58593 51.8503L1.17163 53.2644L-0.242667 54.6785L7.9546 62.8768L9.3689 61.4626ZM1.17163 53.2644L2.58584 51.8502C1.80486 51.0692 1.80482 49.8034 2.58588 49.0223L1.17163 47.6082L-0.242622 46.194C-2.5856 48.5371 -2.58574 52.3355 -0.242583 54.6786L1.17163 53.2644ZM1.17163 47.6082L2.58584 49.0224L18.8769 32.7314L17.4626 31.3171L16.0484 29.9029L-0.242583 46.1939L1.17163 47.6082ZM17.4626 31.3171L18.8769 29.9029L2.58584 13.6119L1.17163 15.0261L-0.242583 16.4403L16.0484 32.7314L17.4626 31.3171ZM1.17163 15.0261L2.58584 13.6119C1.8048 12.8309 1.8048 11.5642 2.58584 10.7831L1.17163 9.3689L-0.242583 7.95468C-2.58573 10.2978 -2.58573 14.0972 -0.242583 16.4403L1.17163 15.0261ZM1.17163 9.3689L2.58584 10.7831L10.7831 2.58584L9.3689 1.17163L7.95468 -0.242583L-0.242583 7.95468L1.17163 9.3689ZM9.3689 1.17163L10.7831 2.58584C11.5642 1.8048 12.8309 1.8048 13.6119 2.58584L15.0261 1.17163L16.4403 -0.242583C14.0972 -2.58573 10.2978 -2.58573 7.95468 -0.242583L9.3689 1.17163ZM15.0261 1.17163L13.6119 2.58584L29.9029 18.8769L31.3171 17.4626L32.7314 16.0484L16.4403 -0.242583L15.0261 1.17163ZM31.3171 17.4626L32.7314 18.8769L49.0224 2.58584L47.6082 1.17163L46.1939 -0.242583L29.9029 16.0484L31.3171 17.4626Z" fill="#31C3BD" mask="url(#path-1-inside-1_4145_370)"/>
</g>
</svg>
